<svg xmlns="http://www.w3.org/2000/svg" viewBox="0 0 760 380" font-family="ui-monospace,'SF Mono',Menlo,Consolas,monospace">
<rect width="760" height="380" rx="10" fill="#0e0f12"/>
<text x="24" y="36" fill="#d9dce1" font-size="16" font-family="-apple-system,BlinkMacSystemFont,'Segoe UI',Roboto,Arial,sans-serif" font-weight="600">Compaction is a lens, not an eraser</text>
<text x="24" y="56" fill="#8b909a" font-size="11.5">the planner's view shrinks; the record never does</text>
<defs><marker id="m" viewBox="0 0 10 10" refX="9" refY="5" markerWidth="7" markerHeight="7" orient="auto-start-reverse"><path d="M 0 1 L 9 5 L 0 9 z" fill="#8b909a"/></marker></defs>
<text x="40" y="96" fill="#8b909a" font-size="11" font-family="-apple-system,BlinkMacSystemFont,'Segoe UI',Roboto,Arial,sans-serif">verified checkpoints (all of them)</text>
<rect x="40" y="108" width="46" height="28" rx="6" fill="#16181d" stroke="#3fb970" stroke-width="1.2"/>
<text x="63.0" y="126.5" fill="#d9dce1" font-size="11" text-anchor="middle">step 0</text>
<rect x="40" y="144" width="46" height="28" rx="6" fill="#16181d" stroke="#3fb970" stroke-width="1.2"/>
<text x="63.0" y="162.5" fill="#d9dce1" font-size="11" text-anchor="middle">step 1</text>
<rect x="40" y="180" width="46" height="28" rx="6" fill="#16181d" stroke="#3fb970" stroke-width="1.2"/>
<text x="63.0" y="198.5" fill="#d9dce1" font-size="11" text-anchor="middle">step 2</text>
<rect x="40" y="216" width="46" height="28" rx="6" fill="#16181d" stroke="#3fb970" stroke-width="1.2"/>
<text x="63.0" y="234.5" fill="#d9dce1" font-size="11" text-anchor="middle">step 3</text>
<rect x="40" y="252" width="46" height="28" rx="6" fill="#16181d" stroke="#3fb970" stroke-width="1.2"/>
<text x="63.0" y="270.5" fill="#d9dce1" font-size="11" text-anchor="middle">step 4</text>
<rect x="40" y="288" width="46" height="28" rx="6" fill="#16181d" stroke="#3fb970" stroke-width="1.2"/>
<text x="63.0" y="306.5" fill="#d9dce1" font-size="11" text-anchor="middle">step 5</text>
<ellipse cx="220" cy="212" rx="34" ry="70" fill="none" stroke="#f0a03c" stroke-width="1.5"/>
<line x1="244" y1="268" x2="272" y2="300" stroke="#f0a03c" stroke-width="4" stroke-linecap="round"/>
<text x="220" y="120" fill="#f0a03c" font-size="11" text-anchor="middle">the compactor</text>
<text x="220" y="134" fill="#8b909a" font-size="10" text-anchor="middle">past the watermark</text>
<path d="M 92 212 L 182 212" fill="none" stroke="#8b909a" stroke-width="1.5" marker-end="url(#m)"/>
<path d="M 258 212 L 330 212" fill="none" stroke="#8b909a" stroke-width="1.5" marker-end="url(#m)"/>
<text x="344" y="96" fill="#8b909a" font-size="11" font-family="-apple-system,BlinkMacSystemFont,'Segoe UI',Roboto,Arial,sans-serif">what the planner is shown</text>
<rect x="344" y="150" width="200" height="52" rx="6" fill="#16181d" stroke="#f0a03c" stroke-width="1.5"/>
<text x="444" y="171" fill="#d9dce1" font-size="11" text-anchor="middle">digest: steps 0–4 folded</text>
<text x="444" y="188" fill="#8b909a" font-size="10" text-anchor="middle">steps · tools · result scraps</text>
<rect x="344" y="214" width="200" height="28" rx="6" fill="#16181d" stroke="#3fb970" stroke-width="1.2"/>
<text x="444.0" y="232.5" fill="#d9dce1" font-size="11" text-anchor="middle">step 5</text>
<text x="344" y="270" fill="#8b909a" font-size="10.5">smaller view, same shape</text>
<rect x="588" y="108" width="140" height="216" rx="8" fill="#16181d" stroke="#3fb970" stroke-width="1.5"/>
<text x="658" y="132" fill="#d9dce1" font-size="12" text-anchor="middle">run.jsonl</text>
<text x="658" y="150" fill="#8b909a" font-size="10" text-anchor="middle">append-only</text>
<text x="658" y="176" fill="#3fb970" font-size="10.5" text-anchor="middle">step 0 ✓ full</text>
<text x="658" y="196" fill="#3fb970" font-size="10.5" text-anchor="middle">step 1 ✓ full</text>
<text x="658" y="216" fill="#3fb970" font-size="10.5" text-anchor="middle">step 2 ✓ full</text>
<text x="658" y="236" fill="#3fb970" font-size="10.5" text-anchor="middle">step 3 ✓ full</text>
<text x="658" y="256" fill="#3fb970" font-size="10.5" text-anchor="middle">step 4 ✓ full</text>
<text x="658" y="276" fill="#3fb970" font-size="10.5" text-anchor="middle">step 5 ✓ full</text>
<text x="658" y="300" fill="#3fb970" font-size="10.5" text-anchor="middle">replay() still</text>
<text x="658" y="314" fill="#3fb970" font-size="10.5" text-anchor="middle">verifies all 6</text>
<text x="40" y="356" fill="#8b909a" font-size="10.5">ContextBudget raises ContextOverflow · compact once · still over? escalate, never loop</text>
</svg>
