<svg xmlns="http://www.w3.org/2000/svg" viewBox="0 0 720 400" font-family="ui-monospace,'SF Mono',Menlo,Consolas,monospace">
<rect width="720" height="400" rx="10" fill="#0e0f12"/>
<defs><marker id="ah" viewBox="0 0 10 10" refX="9" refY="5" markerWidth="7" markerHeight="7" orient="auto-start-reverse"><path d="M 0 1 L 9 5 L 0 9 z" fill="#8b909a"/></marker><marker id="ahA" viewBox="0 0 10 10" refX="9" refY="5" markerWidth="7" markerHeight="7" orient="auto-start-reverse"><path d="M 0 1 L 9 5 L 0 9 z" fill="#f0a03c"/></marker></defs>
<text x="24" y="36" fill="#d9dce1" font-size="16" font-family="-apple-system,BlinkMacSystemFont,'Segoe UI',Roboto,Arial,sans-serif" font-weight="600">Where the engineering lives now</text>
<rect x="30" y="150" width="120" height="96" rx="8" fill="#16181d" stroke="#26292f"/>
<text x="90" y="192" fill="#d9dce1" font-size="13" text-anchor="middle">human</text>
<text x="90" y="212" fill="#8b909a" font-size="10.5" text-anchor="middle">judgment</text>
<rect x="220" y="70" width="470" height="292" rx="10" fill="#16181d" stroke="#f0a03c" stroke-width="1.5"/>
<text x="238" y="96" fill="#f0a03c" font-size="12.5" letter-spacing="1">THE HARNESS</text>
<rect x="252" y="150" width="130" height="82" rx="8" fill="#0e0f12" stroke="#f0a03c" stroke-width="1.5"/>
<text x="317" y="186" fill="#d9dce1" font-size="13" text-anchor="middle">model</text>
<text x="317" y="206" fill="#8b909a" font-size="10.5" text-anchor="middle">(a component)</text>
<path d="M 317 130 A 92 62 0 1 1 316 130" fill="none" stroke="#8b909a" stroke-width="1.5" stroke-dasharray="5 5" marker-end="url(#ah)"/>
<text x="317" y="266" fill="#8b909a" font-size="10.5" text-anchor="middle">inner loop · autonomous</text>
<rect x="452" y="108" width="212" height="52" rx="7" fill="#0e0f12" stroke="#26292f"/>
<text x="558" y="130" fill="#d9dce1" font-size="12" text-anchor="middle">context manager</text>
<text x="558" y="147" fill="#8b909a" font-size="10" text-anchor="middle">budget · compaction · retrieval</text>
<line x1="382" y1="191" x2="452" y2="134" stroke="#26292f" stroke-width="1"/>
<rect x="452" y="172" width="212" height="52" rx="7" fill="#0e0f12" stroke="#26292f"/>
<text x="558" y="194" fill="#d9dce1" font-size="12" text-anchor="middle">tools + permissions</text>
<text x="558" y="211" fill="#8b909a" font-size="10" text-anchor="middle">few · sharp · scoped</text>
<line x1="382" y1="191" x2="452" y2="198" stroke="#26292f" stroke-width="1"/>
<rect x="452" y="236" width="212" height="52" rx="7" fill="#0e0f12" stroke="#26292f"/>
<text x="558" y="258" fill="#d9dce1" font-size="12" text-anchor="middle">verifier + memory</text>
<text x="558" y="275" fill="#8b909a" font-size="10" text-anchor="middle">checkpoints · state</text>
<line x1="382" y1="191" x2="452" y2="262" stroke="#26292f" stroke-width="1"/>
<rect x="452" y="300" width="212" height="52" rx="7" fill="#0e0f12" stroke="#26292f"/>
<text x="558" y="322" fill="#d9dce1" font-size="12" text-anchor="middle">evals</text>
<text x="558" y="339" fill="#8b909a" font-size="10" text-anchor="middle">regression tests for behavior</text>
<line x1="382" y1="191" x2="452" y2="326" stroke="#26292f" stroke-width="1"/>
<path d="M 150 172 L 220 172" stroke="#f0a03c" stroke-width="1.5" marker-end="url(#ahA)"/>
<text x="185" y="162" fill="#f0a03c" font-size="10.5" text-anchor="middle">steer</text>
<path d="M 220 224 L 150 224" stroke="#f0a03c" stroke-width="1.5" marker-end="url(#ahA)"/>
<text x="185" y="246" fill="#f0a03c" font-size="10.5" text-anchor="middle">signals</text>
<text x="185" y="300" fill="#8b909a" font-size="10.5" text-anchor="middle">outer loop</text>
<text x="185" y="316" fill="#8b909a" font-size="10.5" text-anchor="middle">oversight</text>
</svg>
